<?xml version="1.0" encoding="UTF-8"?><svg id="Camada_2" xmlns="http://www.w3.org/2000/svg" viewBox="0 0 225.17 225.19"><defs><style>.cls-1{font-family:Oswald-Regular, Oswald;font-size:20px;}</style></defs><g id="Camada_2-2"><text class="cls-1" transform="translate(83.63 22.53) rotate(-15.52)"><tspan x="0" y="0">&lt;</tspan></text><text class="cls-1" transform="translate(91.71 20.26) rotate(-9.52)"><tspan x="0" y="0">R</tspan></text><text class="cls-1" transform="translate(102.81 18.44) rotate(-2.61)"><tspan x="0" y="0">O</tspan></text><text class="cls-1" transform="translate(114.47 17.96) rotate(4.35)"><tspan x="0" y="0">O</tspan></text><text class="cls-1" transform="translate(126.13 18.98) rotate(10.6)"><tspan x="0" y="0">T</tspan></text><text class="cls-1" transform="translate(134.92 20.68) rotate(15.9)"><tspan x="0" y="0">&gt;</tspan></text><text class="cls-1" transform="translate(143.05 23.09) rotate(20.2)"><tspan x="0" y="0"> </tspan></text><text class="cls-1" transform="translate(148.29 24.92) rotate(25.4)"><tspan x="0" y="0">D</tspan></text><text class="cls-1" transform="translate(158.59 29.94) rotate(31.63)"><tspan x="0" y="0">E</tspan></text><text class="cls-1" transform="translate(166.32 34.72) rotate(37.52)"><tspan x="0" y="0">S</tspan></text><text class="cls-1" transform="translate(174.53 41.13) rotate(43.4)"><tspan x="0" y="0">E</tspan></text><text class="cls-1" transform="translate(181.11 47.33) rotate(49.57)"><tspan x="0" y="0">N</tspan></text><text class="cls-1" transform="translate(188.49 56.09) rotate(56.35)"><tspan x="0" y="0">V</tspan></text><text class="cls-1" transform="translate(194.46 65.09) rotate(63.1)"><tspan x="0" y="0">O</tspan></text><text class="cls-1" transform="translate(199.63 75.58) rotate(69.36)"><tspan x="0" y="0">L</tspan></text><text class="cls-1" transform="translate(202.6 83.34) rotate(75.09)"><tspan x="0" y="0">V</tspan></text><text class="cls-1" transform="translate(205.29 94.08) rotate(80.28)"><tspan x="0" y="0">I</tspan></text><text class="cls-1" transform="translate(206.45 99.87) rotate(86.33)"><tspan x="0" y="0">M</tspan></text><text class="cls-1" transform="translate(207.15 113.93) rotate(93.22)"><tspan x="0" y="0">E</tspan></text><text class="cls-1" transform="translate(206.66 122.97) rotate(99.42)"><tspan x="0" y="0">N</tspan></text><text class="cls-1" transform="translate(204.66 134.27) rotate(105.63)"><tspan x="0" y="0">T</tspan></text><text class="cls-1" transform="translate(202.29 142.85) rotate(111.92)"><tspan x="0" y="0">O</tspan></text><text class="cls-1" transform="translate(197.73 153.68) rotate(117.19)"><tspan x="0" y="0"> </tspan></text><text class="cls-1" transform="translate(195.41 158.68) rotate(123.55)"><tspan x="0" y="0">W</tspan></text><text class="cls-1" transform="translate(186.67 171.39) rotate(130.92)"><tspan x="0" y="0">E</tspan></text><text class="cls-1" transform="translate(180.74 178.25) rotate(137.08)"><tspan x="0" y="0">B</tspan></text><text class="cls-1" transform="translate(172.25 185.91) rotate(142.2)"><tspan x="0" y="0"> </tspan></text><text class="cls-1" transform="translate(167.78 189.37) rotate(146.17)"><tspan x="0" y="0">-</tspan></text><text class="cls-1" transform="translate(161.53 193.47) rotate(150.14)"><tspan x="0" y="0"> </tspan></text><text class="cls-1" transform="translate(156.74 196.31) rotate(155.12)"><tspan x="0" y="0">A</tspan></text><text class="cls-1" transform="translate(146.98 200.79) rotate(161.81)"><tspan x="0" y="0">C</tspan></text><text class="cls-1" transform="translate(136.3 204.19) rotate(168)"><tspan x="0" y="0">E</tspan></text><text class="cls-1" transform="translate(127.42 206.06) rotate(173.91)"><tspan x="0" y="0">S</tspan></text><text class="cls-1" transform="translate(117.13 207.17) rotate(-179.07)"><tspan x="0" y="0">S</tspan></text><text class="cls-1" transform="translate(106.64 206.95) rotate(-174.97)"><tspan x="0" y="0">I</tspan></text><text class="cls-1" transform="translate(100.71 206.51) rotate(-169.69)"><tspan x="0" y="0">B</tspan></text><text class="cls-1" transform="translate(89.49 204.29) rotate(-164.4)"><tspan x="0" y="0">I</tspan></text><text class="cls-1" transform="translate(83.74 202.71) rotate(-159.85)"><tspan x="0" y="0">L</tspan></text><text class="cls-1" transform="translate(75.34 199.52) rotate(-155.28)"><tspan x="0" y="0">I</tspan></text><text class="cls-1" transform="translate(69.94 197.12) rotate(-149.99)"><tspan x="0" y="0">D</tspan></text><text class="cls-1" transform="translate(60.25 191.46) rotate(-143.41)"><tspan x="0" y="0">A</tspan></text><text class="cls-1" transform="translate(51.64 185.03) rotate(-136.73)"><tspan x="0" y="0">D</tspan></text><text class="cls-1" transform="translate(43.39 177.1) rotate(-130.56)"><tspan x="0" y="0">E</tspan></text><text class="cls-1" transform="translate(37.52 170.08) rotate(-126.1)"><tspan x="0" y="0"> </tspan></text><text class="cls-1" transform="translate(34.08 165.75) rotate(-119.75)"><tspan x="0" y="0">W</tspan></text><text class="cls-1" transform="translate(26.67 152.25) rotate(-112.33)"><tspan x="0" y="0">E</tspan></text><text class="cls-1" transform="translate(23.21 143.87) rotate(-106.09)"><tspan x="0" y="0">B</tspan></text><text class="cls-1" transform="translate(20.21 132.81) rotate(-100.89)"><tspan x="0" y="0"> </tspan></text><text class="cls-1" transform="translate(19.15 127.3) rotate(-96.93)"><tspan x="0" y="0">-</tspan></text><text class="cls-1" transform="translate(18.32 119.86) rotate(-92.97)"><tspan x="0" y="0"> </tspan></text><text class="cls-1" transform="translate(17.95 114.3) rotate(-87.95)"><tspan x="0" y="0">C</tspan></text><text class="cls-1" transform="translate(18.38 103.13) rotate(-81.07)"><tspan x="0" y="0">O</tspan></text><text class="cls-1" transform="translate(20.25 91.63) rotate(-74.03)"><tspan x="0" y="0">N</tspan></text><text class="cls-1" transform="translate(23.48 80.64) rotate(-67.38)"><tspan x="0" y="0">S</tspan></text><text class="cls-1" transform="translate(27.47 71.1) rotate(-60.66)"><tspan x="0" y="0">U</tspan></text><text class="cls-1" transform="translate(33.36 60.89) rotate(-54.41)"><tspan x="0" y="0">L</tspan></text><text class="cls-1" transform="translate(38.31 54.01) rotate(-49.28)"><tspan x="0" y="0">T</tspan></text><text class="cls-1" transform="translate(44.1 47.24) rotate(-43.08)"><tspan x="0" y="0">O</tspan></text><text class="cls-1" transform="translate(52.67 39.32) rotate(-36.17)"><tspan x="0" y="0">R</tspan></text><text class="cls-1" transform="translate(61.93 32.76) rotate(-30.94)"><tspan x="0" y="0">I</tspan></text><text class="cls-1" transform="translate(66.99 29.65) rotate(-25.85)"><tspan x="0" y="0">A</tspan></text></g></svg>