<svg xmlns="http://www.w3.org/2000/svg" width="326.5" height="326.499" viewBox="0 0 326.5 326.499">
  <g id="coding" transform="translate(0 -0.001)">
    <g id="Grupo_63" data-name="Grupo 63" transform="translate(248.701 238.549)">
      <g id="Grupo_62" data-name="Grupo 62">
        <path id="Caminho_232" data-name="Caminho 232" d="M400.886,375.949a6.374,6.374,0,1,0,1.868,4.508A6.426,6.426,0,0,0,400.886,375.949Z" transform="translate(-390 -374.08)" fill="#f2f2f2"/>
      </g>
    </g>
    <g id="Grupo_65" data-name="Grupo 65" transform="translate(0 0.001)">
      <g id="Grupo_64" data-name="Grupo 64">
        <path id="Caminho_233" data-name="Caminho 233" d="M300.992,0H25.508A25.537,25.537,0,0,0,0,25.509V225.8a25.537,25.537,0,0,0,25.508,25.508H125.626v32.01a37.035,37.035,0,0,0-33.373,36.807A6.377,6.377,0,0,0,98.63,326.5H227.87a6.377,6.377,0,0,0,6.377-6.377,37.028,37.028,0,0,0-34.648-36.9V251.306h29.759a6.377,6.377,0,1,0,0-12.754H25.508A12.768,12.768,0,0,1,12.754,225.8V25.509A12.768,12.768,0,0,1,25.508,12.755H300.992a12.768,12.768,0,0,1,12.754,12.754V225.8a12.768,12.768,0,0,1-12.754,12.754H277.185a6.377,6.377,0,0,0,0,12.754h23.807A25.537,25.537,0,0,0,326.5,225.8V25.509A25.536,25.536,0,0,0,300.992,0ZM138.38,251.306h48.465v31.832H138.38Zm58.88,44.586a24.277,24.277,0,0,1,23.382,17.855H105.858a24.275,24.275,0,0,1,23.381-17.855Z" transform="translate(0 -0.001)" fill="#f2f2f2"/>
      </g>
    </g>
    <g id="Grupo_67" data-name="Grupo 67" transform="translate(156.235 218.144)">
      <g id="Grupo_66" data-name="Grupo 66">
        <path id="Caminho_234" data-name="Caminho 234" d="M255.885,343.949a6.373,6.373,0,1,0,1.868,4.508A6.425,6.425,0,0,0,255.885,343.949Z" transform="translate(-245 -342.081)" fill="#f2f2f2"/>
      </g>
    </g>
    <g id="Grupo_69" data-name="Grupo 69" transform="translate(77.834 74.769)">
      <g id="Grupo_68" data-name="Grupo 68">
        <path id="Caminho_235" data-name="Caminho 235" d="M137.45,159.378l31.245-31.244a6.377,6.377,0,1,0-9.018-9.018l-35.753,35.753a6.378,6.378,0,0,0,0,9.019l35.753,35.753a6.377,6.377,0,1,0,9.018-9.019Z" transform="translate(-122.055 -117.248)" fill="#f2f2f2"/>
      </g>
    </g>
    <g id="Grupo_71" data-name="Grupo 71" transform="translate(200.158 74.769)">
      <g id="Grupo_70" data-name="Grupo 70">
        <path id="Caminho_236" data-name="Caminho 236" d="M360.517,154.869l-35.753-35.753a6.377,6.377,0,0,0-9.019,9.019l31.244,31.244-31.244,31.244a6.377,6.377,0,0,0,9.019,9.018l35.753-35.753A6.378,6.378,0,0,0,360.517,154.869Z" transform="translate(-313.877 -117.248)" fill="#f2f2f2"/>
      </g>
    </g>
    <g id="Grupo_73" data-name="Grupo 73" transform="translate(147.325 77.28)">
      <g id="Grupo_72" data-name="Grupo 72">
        <path id="Caminho_237" data-name="Caminho 237" d="M258.149,121.405a6.377,6.377,0,0,0-7.811,4.509l-19.091,71.25a6.377,6.377,0,1,0,12.32,3.3l19.091-71.25A6.377,6.377,0,0,0,258.149,121.405Z" transform="translate(-231.028 -121.186)" fill="#f2f2f2"/>
      </g>
    </g>
    <g id="Grupo_75" data-name="Grupo 75" transform="translate(25.508 25.562)">
      <g id="Grupo_74" data-name="Grupo 74">
        <path id="Caminho_238" data-name="Caminho 238" d="M309.107,40.084H207.714a6.377,6.377,0,1,0,0,12.754H302.73V212.262H52.754V52.838H150.64a6.377,6.377,0,1,0,0-12.754H46.377A6.377,6.377,0,0,0,40,46.461V218.639a6.377,6.377,0,0,0,6.377,6.377h262.73a6.377,6.377,0,0,0,6.377-6.377V46.461A6.377,6.377,0,0,0,309.107,40.084Z" transform="translate(-40 -40.084)" fill="#f2f2f2"/>
      </g>
    </g>
    <g id="Grupo_77" data-name="Grupo 77" transform="translate(158.148 25.56)">
      <g id="Grupo_76" data-name="Grupo 76">
        <path id="Caminho_239" data-name="Caminho 239" d="M258.885,41.949a6.381,6.381,0,1,0,1.868,4.508A6.425,6.425,0,0,0,258.885,41.949Z" transform="translate(-248 -40.081)" fill="#f2f2f2"/>
      </g>
    </g>
  </g>
</svg>
