<svg xmlns="http://www.w3.org/2000/svg" width="204.998" height="56.24" viewBox="0 0 204.998 56.24">
  <g id="ROOT_logo" transform="translate(0 -134.68)">
    <g id="Camada_2" transform="translate(37.374 145.041)">
      <path id="Caminho_503" data-name="Caminho 503" d="M233.2,214.354l-8.847-2.633s11.357-.435,11.357-10.475c0-8.651-11.357-8.645-11.357-8.645H208.93v35.522h11.157V211.846h.837l7.062,16.276h11.781l-6.57-13.767Zm-13.108-4.909V195.11s4.184,0,4.261,7.168C224.425,209.336,220.087,209.445,220.087,209.445Z" transform="translate(-208.93 -192.6)" fill="#1a1a1a"/>
    </g>
    <g id="Camada_3" transform="translate(68.612 144.387)">
      <path id="Caminho_504" data-name="Caminho 504" d="M400.015,188.951c-9.2-.218-16.455,8.164-16.455,18.409s4.742,18.688,14.783,18.409c9.762-.272,16.734-8.164,16.734-18.409S411.73,189.23,400.015,188.951Zm3.347,18.688c-.426,8.924-.268,16.176-3.765,16.176-3.765,0-4.324-7.243-4.324-16.176s.558-17.013,4.463-16.734C401.811,191.053,403.92,195.925,403.362,207.639Z" transform="translate(-383.56 -188.947)" fill="#1a1a1a"/>
      <path id="Caminho_505" data-name="Caminho 505" d="M598.035,188.951c-9.2-.218-16.455,8.164-16.455,18.409s4.742,18.688,14.783,18.409c9.761-.272,16.734-8.164,16.734-18.409S609.75,189.23,598.035,188.951Zm3.347,18.688c-.426,8.924-.268,16.176-3.766,16.176-3.765,0-4.323-7.243-4.323-16.176s.558-17.013,4.463-16.734C599.831,191.053,601.94,195.925,601.382,207.639Z" transform="translate(-546.158 -188.947)" fill="#1a1a1a"/>
    </g>
    <g id="Camada_4" transform="translate(0 134.68)">
      <path id="Caminho_506" data-name="Caminho 506" d="M776.892,227.778V194.392h-.853l-8.919,7.441V192.07h30.406l-.005,9.763L788.6,194.3h-.837v33.476Z" transform="translate(-629.896 -181.804)" fill="#1a1a1a"/>
      <path id="Caminho_507" data-name="Caminho 507" d="M980.73,184.023l24.635-20.736v-.948L980.73,141.791V134.68l29.564,25.051v5.878L980.73,190.92Z" transform="translate(-805.295 -134.68)" fill="#1a1a1a"/>
      <path id="Caminho_508" data-name="Caminho 508" d="M29.564,184.023,4.928,163.287v-.948l24.636-20.548V134.68L0,159.731v5.878L29.564,190.92Z" transform="translate(0 -134.68)" fill="#1a1a1a"/>
    </g>
  </g>
</svg>
