<svg xmlns="http://www.w3.org/2000/svg" width="329.691" height="90.449" viewBox="0 0 329.691 90.449">
  <g id="ROOT_logo" transform="translate(0 -134.68)">
    <g id="Camada_2" transform="translate(60.107 151.343)">
      <path id="Caminho_503" data-name="Caminho 503" d="M247.955,227.586l-14.229-4.235s18.265-.7,18.265-16.847c0-13.913-18.265-13.9-18.265-13.9h-24.8v57.129h17.943V223.552h1.346l11.358,26.177h18.947l-10.567-22.141Zm-21.082-7.894V196.636s6.729,0,6.853,11.528C233.85,219.516,226.873,219.692,226.873,219.692Z" transform="translate(-208.93 -192.6)" fill="#fff"/>
    </g>
    <g id="Camada_3" transform="translate(110.346 150.292)">
      <path id="Caminho_504" data-name="Caminho 504" d="M410.024,188.953c-14.8-.351-26.464,13.13-26.464,29.606s7.627,30.055,23.775,29.606c15.7-.437,26.913-13.13,26.913-29.606S428.865,189.4,410.024,188.953Zm5.383,30.055c-.685,14.353-.432,26.016-6.056,26.016-6.056,0-6.953-11.648-6.953-26.016s.9-27.362,7.178-26.913C412.913,192.334,416.3,200.17,415.407,219.008Z" transform="translate(-383.56 -188.947)" fill="#fff"/>
      <path id="Caminho_505" data-name="Caminho 505" d="M608.045,188.953c-14.8-.351-26.464,13.13-26.464,29.606s7.627,30.055,23.775,29.606c15.7-.437,26.913-13.13,26.913-29.606S626.885,189.4,608.045,188.953Zm5.383,30.055c-.685,14.353-.432,26.016-6.056,26.016-6.056,0-6.953-11.648-6.953-26.016s.9-27.362,7.178-26.913C610.933,192.334,614.325,200.17,613.427,219.008Z" transform="translate(-524.612 -188.947)" fill="#fff"/>
    </g>
    <g id="Camada_4" transform="translate(0 134.68)">
      <path id="Caminho_506" data-name="Caminho 506" d="M782.836,249.5V195.8h-1.372L767.12,207.772v-15.7h48.9l-.009,15.7L801.66,195.66h-1.346V249.5Z" transform="translate(-546.428 -175.56)" fill="#fff"/>
      <path id="Caminho_507" data-name="Caminho 507" d="M980.73,214.036l39.62-33.349v-1.525l-39.62-33.047V134.68l47.546,40.288v9.453L980.73,225.129Z" transform="translate(-698.585 -134.68)" fill="#fff"/>
      <path id="Caminho_508" data-name="Caminho 508" d="M47.546,214.036,7.926,180.687v-1.525l39.62-33.047V134.68L0,174.968v9.453l47.546,40.708Z" transform="translate(0 -134.68)" fill="#fff"/>
    </g>
  </g>
</svg>
